<svg width="45" height="46" viewBox="0 0 45 46" fill="none" xmlns="http://www.w3.org/2000/svg">
<path d="M22.4989 6.18364e-07C11.4648 -0.00146646 2.05885 8.28172 0.292223 19.5558C-1.4744 30.8299 4.91999 41.7659 15.3888 45.3746C16.5163 45.5847 16.9199 44.8681 16.9199 44.2519C16.9199 43.6986 16.9019 42.2328 16.8951 40.2837C10.6374 41.6842 9.31596 37.1605 9.31596 37.1605C8.904 35.7529 8.01836 34.5447 6.81964 33.7549C4.79011 32.3101 6.97523 32.3427 6.97523 32.3427C8.41998 32.5478 9.69153 33.4339 10.4187 34.7423C11.0341 35.9007 12.0711 36.7566 13.299 37.12C14.527 37.4833 15.8443 37.324 16.9583 36.6774C17.0629 35.4963 17.5706 34.3924 18.3902 33.5635C13.3976 32.9776 8.14785 30.9796 8.14785 22.0559C8.12014 19.7478 8.94816 17.5166 10.4615 15.8212C9.77677 13.8122 9.85741 11.6086 10.687 9.65894C10.687 9.65894 12.5745 9.03104 16.8703 12.0422C20.5547 10.9965 24.4431 10.9965 28.1274 12.0422C32.4255 9.0287 34.3107 9.65894 34.3107 9.65894C35.1442 11.6077 35.2249 13.8128 34.5362 15.8212C36.0551 17.5164 36.8824 19.7535 36.8454 22.0652C36.8454 31.0122 31.5912 32.9776 26.5805 33.5542C27.6614 34.6981 28.2157 36.2673 28.1026 37.8631C28.1026 40.977 28.0756 43.4886 28.0756 44.2519C28.0756 44.8751 28.477 45.5987 29.6248 45.3699C40.0892 41.7551 46.4767 30.8185 44.7064 19.5474C42.9362 8.27628 33.5306 -0.00261238 22.4989 6.18364e-07Z" fill="white"/>
</svg>
