<svg width="45" height="45" viewBox="0 0 45 45" fill="none" xmlns="http://www.w3.org/2000/svg">
<path d="M42.5 0H2.5C1.1175 0 0 1.12 0 2.5V42.5C0 43.88 1.1175 45 2.5 45H42.5C43.8825 45 45 43.88 45 42.5V2.5C45 1.12 43.8825 0 42.5 0ZM13.3475 38.3425H6.6675V16.8675H13.3475V38.3425ZM10.0075 13.935C7.8675 13.935 6.1375 12.2 6.1375 10.065C6.1375 7.93 7.865 6.195 10.0075 6.195C12.1425 6.195 13.8775 7.9275 13.8775 10.065C13.8775 12.2025 12.1425 13.935 10.0075 13.935ZM38.345 38.3425H31.6725V27.9C31.6725 25.41 31.6275 22.2075 28.2025 22.2075C24.7275 22.2075 24.2 24.9225 24.2 27.725V38.345H17.5325V16.87H23.9325V19.805H24.025C24.9125 18.1175 27.0925 16.3375 30.335 16.3375C37.095 16.3375 38.3425 20.7825 38.3425 26.5675V38.3425H38.345Z" fill="white"/>
</svg>
