<svg width="36" height="35" viewBox="0 0 36 35" fill="none" xmlns="http://www.w3.org/2000/svg">
<g clip-path="url(#clip0)">
<path fill-rule="evenodd" clip-rule="evenodd" d="M28.2963 0H24.878V10.2551H28.2963L31.7146 10.2551V3.41835H28.2963V0ZM21.4595 3.41835H24.8779V6.8367L21.4596 6.8367V10.255H18.0412V6.8367L21.4595 6.8367V3.41835ZM14.6229 10.2551H18.0413V13.6734H14.6229V10.2551ZM14.6228 13.6734H11.2045V17.0918L7.7862 17.0918V20.5101H11.2045V17.0918L14.6228 17.0918V13.6734ZM4.36775 20.5101H7.7861V23.9285L4.36781 23.9285V30.7652L11.2045 30.7652V27.3468H14.6228V30.7652L11.2045 30.7652V34.1835L0.949463 34.1835V30.7652V23.9285L4.36775 23.9285V20.5101ZM11.2045 23.9285H7.7862V27.3468H11.2045V23.9285ZM14.6229 23.9285L18.0412 23.9285V20.5101L21.4595 20.5101V17.0918H24.8779V20.5101L21.4596 20.5101V23.9285L18.0413 23.9285V27.3468H14.6229V23.9285ZM28.2962 13.6734L24.878 13.6734V17.0918H28.2963V13.6734L31.7146 13.6734V10.2551H28.2962V13.6734ZM35.133 6.8367H31.7147V10.255H35.133V6.8367Z" fill="#0A0A0A"/>
</g>
<defs>
<clipPath id="clip0">
<rect width="34.1835" height="34.1835" fill="white" transform="translate(0.949463)"/>
</clipPath>
</defs>
</svg>
