<svg width="35" height="36" viewBox="0 0 35 36" fill="none" xmlns="http://www.w3.org/2000/svg">
<path id="pencil" fill-rule="evenodd" clip-rule="evenodd" d="M27.7321 0.862427H24.3137V11.1175H27.7321L31.1504 11.1175V4.28077H27.7321V0.862427ZM20.8953 4.28077H24.3137V7.69913L20.8954 7.69912V11.1175H17.477V7.69912L20.8953 7.69913V4.28077ZM14.0587 11.1175H17.4771V14.5358H14.0587V11.1175ZM14.0586 14.5358H10.6403V17.9542L7.22199 17.9542V21.3725H10.6403V17.9542L14.0586 17.9542V14.5358ZM3.80354 21.3725H7.2219V24.7909L3.80361 24.7909V31.6276L10.6403 31.6276V28.2092H14.0586V31.6276L10.6403 31.6276V35.0459L0.385254 35.0459V31.6276V24.7909L3.80354 24.7909V21.3725ZM10.6403 24.7909H7.22199V28.2092H10.6403V24.7909ZM14.0587 24.7909L17.477 24.7909V21.3725L20.8953 21.3725V17.9542H24.3137V21.3725L20.8954 21.3725V24.7909L17.4771 24.7909V28.2092H14.0587V24.7909ZM27.732 14.5358L24.3137 14.5358V17.9542H27.7321V14.5358L31.1504 14.5358V11.1175H27.732V14.5358ZM34.5688 7.69912H31.1505V11.1175H34.5688V7.69912Z" fill="white"/>
</svg>
